<?xml version="1.0" encoding="utf-8" standalone="no"?>
<!DOCTYPE svg PUBLIC "-//W3C//DTD SVG 1.1//EN"
  "http://www.w3.org/Graphics/SVG/1.1/DTD/svg11.dtd">
<svg height="288pt" version="1.1" viewBox="0 0 432 288" width="432pt" xmlns="http://www.w3.org/2000/svg" xmlns:xlink="http://www.w3.org/1999/xlink">
 <metadata>
  <rdf:RDF xmlns:cc="http://creativecommons.org/ns#" xmlns:dc="http://purl.org/dc/elements/1.1/" xmlns:rdf="http://www.w3.org/1999/02/22-rdf-syntax-ns#">
   <cc:Work>
    <dc:type rdf:resource="http://purl.org/dc/dcmitype/StillImage"/>
    <dc:date>2021-05-27T11:41:12.953031</dc:date>
    <dc:format>image/svg+xml</dc:format>
    <dc:creator>
     <cc:Agent>
      <dc:title>Matplotlib v3.4.2, https://matplotlib.org/</dc:title>
     </cc:Agent>
    </dc:creator>
   </cc:Work>
  </rdf:RDF>
 </metadata>
 <defs>
  <style type="text/css">*{stroke-linecap:butt;stroke-linejoin:round;}</style>
 </defs>
 <g id="figure_1">
  <g id="patch_1">
   <path d="M 0 288 
L 432 288 
L 432 0 
L 0 0 
z
" style="fill:none;"/>
  </g>
  <g id="axes_1">
   <g id="patch_2">
    <path d="M 54 252 
L 388.8 252 
L 388.8 34.56 
L 54 34.56 
z
" style="fill:#ffffff;"/>
   </g>
   <g id="PolyCollection_1">
    <path clip-path="url(#pfab4d2ac17)" d="M 69.218182 242.115999 
L 69.218182 242.116364 
L 70.747647 242.116364 
L 72.277113 242.116364 
L 73.806578 242.116364 
L 75.336044 242.116364 
L 76.865509 242.116364 
L 78.394975 242.116364 
L 79.92444 242.116364 
L 81.453906 242.116364 
L 82.983371 242.116364 
L 84.512837 242.116364 
L 86.042302 242.116364 
L 87.571768 242.116364 
L 89.101233 242.116364 
L 90.630699 242.116364 
L 92.160164 242.116364 
L 93.68963 242.116364 
L 95.219095 242.116364 
L 96.748561 242.116364 
L 98.278026 242.116364 
L 99.807492 242.116364 
L 101.336958 242.116364 
L 102.866423 242.116364 
L 104.395889 242.116364 
L 105.925354 242.116364 
L 107.45482 242.116364 
L 108.984285 242.116364 
L 110.513751 242.116364 
L 112.043216 242.116364 
L 113.572682 242.116364 
L 115.102147 242.116364 
L 116.631613 242.116364 
L 118.161078 242.116364 
L 119.690544 242.116364 
L 121.220009 242.116364 
L 122.749475 242.116364 
L 124.27894 242.116364 
L 125.808406 242.116364 
L 127.337871 242.116364 
L 128.867337 242.116364 
L 130.396802 242.116364 
L 131.926268 242.116364 
L 133.455733 242.116364 
L 134.985199 242.116364 
L 136.514664 242.116364 
L 138.04413 242.116364 
L 139.573595 242.116364 
L 141.103061 242.116364 
L 142.632526 242.116364 
L 144.161992 242.116364 
L 145.691457 242.116364 
L 147.220923 242.116364 
L 148.750388 242.116364 
L 150.279854 242.116364 
L 151.809319 242.116364 
L 153.338785 242.116364 
L 154.86825 242.116364 
L 156.397716 242.116364 
L 157.927181 242.116364 
L 159.456647 242.116364 
L 160.986112 242.116364 
L 162.515578 242.116364 
L 164.045043 242.116364 
L 165.574509 242.116364 
L 167.103974 242.116364 
L 168.63344 242.116364 
L 170.162905 242.116364 
L 171.692371 242.116364 
L 173.221836 242.116364 
L 174.751302 242.116364 
L 176.280767 242.116364 
L 177.810233 242.116364 
L 179.339698 242.116364 
L 180.869164 242.116364 
L 182.39863 242.116364 
L 183.928095 242.116364 
L 185.457561 242.116364 
L 186.987026 242.116364 
L 188.516492 242.116364 
L 190.045957 242.116364 
L 191.575423 242.116364 
L 193.104888 242.116364 
L 194.634354 242.116364 
L 196.163819 242.116364 
L 197.693285 242.116364 
L 199.22275 242.116364 
L 200.752216 242.116364 
L 202.281681 242.116364 
L 203.811147 242.116364 
L 205.340612 242.116364 
L 206.870078 242.116364 
L 208.399543 242.116364 
L 209.929009 242.116364 
L 211.458474 242.116364 
L 212.98794 242.116364 
L 214.517405 242.116364 
L 216.046871 242.116364 
L 217.576336 242.116364 
L 219.105802 242.116364 
L 220.635267 242.116364 
L 222.164733 242.116364 
L 223.694198 242.116364 
L 225.223664 242.116364 
L 226.753129 242.116364 
L 228.282595 242.116364 
L 229.81206 242.116364 
L 231.341526 242.116364 
L 232.870991 242.116364 
L 234.400457 242.116364 
L 235.929922 242.116364 
L 237.459388 242.116364 
L 238.988853 242.116364 
L 240.518319 242.116364 
L 242.047784 242.116364 
L 243.57725 242.116364 
L 245.106715 242.116364 
L 246.636181 242.116364 
L 248.165646 242.116364 
L 249.695112 242.116364 
L 251.224577 242.116364 
L 252.754043 242.116364 
L 254.283508 242.116364 
L 255.812974 242.116364 
L 257.342439 242.116364 
L 258.871905 242.116364 
L 260.40137 242.116364 
L 261.930836 242.116364 
L 263.460302 242.116364 
L 264.989767 242.116364 
L 266.519233 242.116364 
L 268.048698 242.116364 
L 269.578164 242.116364 
L 271.107629 242.116364 
L 272.637095 242.116364 
L 274.16656 242.116364 
L 275.696026 242.116364 
L 277.225491 242.116364 
L 278.754957 242.116364 
L 280.284422 242.116364 
L 281.813888 242.116364 
L 283.343353 242.116364 
L 284.872819 242.116364 
L 286.402284 242.116364 
L 287.93175 242.116364 
L 289.461215 242.116364 
L 290.990681 242.116364 
L 292.520146 242.116364 
L 294.049612 242.116364 
L 295.579077 242.116364 
L 297.108543 242.116364 
L 298.638008 242.116364 
L 300.167474 242.116364 
L 301.696939 242.116364 
L 303.226405 242.116364 
L 304.75587 242.116364 
L 306.285336 242.116364 
L 307.814801 242.116364 
L 309.344267 242.116364 
L 310.873732 242.116364 
L 312.403198 242.116364 
L 313.932663 242.116364 
L 315.462129 242.116364 
L 316.991594 242.116364 
L 318.52106 242.116364 
L 320.050525 242.116364 
L 321.579991 242.116364 
L 323.109456 242.116364 
L 324.638922 242.116364 
L 326.168387 242.116364 
L 327.697853 242.116364 
L 329.227318 242.116364 
L 330.756784 242.116364 
L 332.286249 242.116364 
L 333.815715 242.116364 
L 335.34518 242.116364 
L 336.874646 242.116364 
L 338.404111 242.116364 
L 339.933577 242.116364 
L 341.463042 242.116364 
L 342.992508 242.116364 
L 344.521974 242.116364 
L 346.051439 242.116364 
L 347.580905 242.116364 
L 349.11037 242.116364 
L 350.639836 242.116364 
L 352.169301 242.116364 
L 353.698767 242.116364 
L 355.228232 242.116364 
L 356.757698 242.116364 
L 358.287163 242.116364 
L 359.816629 242.116364 
L 361.346094 242.116364 
L 362.87556 242.116364 
L 364.405025 242.116364 
L 365.934491 242.116364 
L 367.463956 242.116364 
L 368.993422 242.116364 
L 370.522887 242.116364 
L 372.052353 242.116364 
L 373.581818 242.116364 
L 373.581818 242.105844 
L 373.581818 242.105844 
L 372.052353 242.105077 
L 370.522887 242.104256 
L 368.993422 242.103375 
L 367.463956 242.102431 
L 365.934491 242.101419 
L 364.405025 242.100334 
L 362.87556 242.099172 
L 361.346094 242.097926 
L 359.816629 242.096591 
L 358.287163 242.095161 
L 356.757698 242.093628 
L 355.228232 242.091986 
L 353.698767 242.090227 
L 352.169301 242.088343 
L 350.639836 242.086324 
L 349.11037 242.084162 
L 347.580905 242.081847 
L 346.051439 242.079367 
L 344.521974 242.076712 
L 342.992508 242.073868 
L 341.463042 242.070824 
L 339.933577 242.067564 
L 338.404111 242.064075 
L 336.874646 242.060339 
L 335.34518 242.056341 
L 333.815715 242.052061 
L 332.286249 242.047481 
L 330.756784 242.04258 
L 329.227318 242.037336 
L 327.697853 242.031724 
L 326.168387 242.025721 
L 324.638922 242.019298 
L 323.109456 242.012428 
L 321.579991 242.00508 
L 320.050525 241.997221 
L 318.52106 241.988816 
L 316.991594 241.979829 
L 315.462129 241.970219 
L 313.932663 241.959946 
L 312.403198 241.948963 
L 310.873732 241.937223 
L 309.344267 241.924676 
L 307.814801 241.911266 
L 306.285336 241.896936 
L 304.75587 241.881624 
L 303.226405 241.865265 
L 301.696939 241.847789 
L 300.167474 241.829121 
L 298.638008 241.809183 
L 297.108543 241.787891 
L 295.579077 241.765153 
L 294.049612 241.740877 
L 292.520146 241.714959 
L 290.990681 241.687293 
L 289.461215 241.657763 
L 287.93175 241.626248 
L 286.402284 241.592619 
L 284.872819 241.556738 
L 283.343353 241.518459 
L 281.813888 241.477627 
L 280.284422 241.434077 
L 278.754957 241.387634 
L 277.225491 241.338113 
L 275.696026 241.285316 
L 274.16656 241.229035 
L 272.637095 241.169048 
L 271.107629 241.10512 
L 269.578164 241.037001 
L 268.048698 240.964429 
L 266.519233 240.887122 
L 264.989767 240.804785 
L 263.460302 240.717103 
L 261.930836 240.623745 
L 260.40137 240.524359 
L 258.871905 240.418572 
L 257.342439 240.305991 
L 255.812974 240.1862 
L 254.283508 240.058759 
L 252.754043 239.923203 
L 251.224577 239.779042 
L 249.695112 239.625756 
L 248.165646 239.462798 
L 246.636181 239.289591 
L 245.106715 239.105526 
L 243.57725 238.909961 
L 242.047784 238.702218 
L 240.518319 238.481584 
L 238.988853 238.247309 
L 237.459388 237.998603 
L 235.929922 237.734634 
L 234.400457 237.454528 
L 232.870991 237.157366 
L 231.341526 236.842183 
L 229.81206 236.507966 
L 228.282595 236.153651 
L 226.753129 235.778125 
L 225.223664 235.380218 
L 223.694198 234.958706 
L 222.164733 234.512309 
L 220.635267 234.039688 
L 219.105802 233.539441 
L 217.576336 233.010106 
L 216.046871 232.450158 
L 214.517405 231.858004 
L 212.98794 231.231986 
L 211.458474 230.570378 
L 209.929009 229.871386 
L 208.399543 229.133145 
L 206.870078 228.353719 
L 205.340612 227.531103 
L 203.811147 226.663218 
L 202.281681 225.747919 
L 200.752216 224.782985 
L 199.22275 223.766129 
L 197.693285 222.694995 
L 196.163819 221.567162 
L 194.634354 220.380143 
L 193.104888 219.131393 
L 191.575423 217.818308 
L 190.045957 216.438233 
L 188.516492 214.988465 
L 186.987026 213.466262 
L 185.457561 211.868848 
L 183.928095 210.193421 
L 182.39863 208.437166 
L 180.869164 206.597261 
L 179.339698 204.670894 
L 177.810233 202.655275 
L 176.280767 200.54765 
L 174.751302 198.345321 
L 173.221836 196.045664 
L 171.692371 193.646151 
L 170.162905 191.144372 
L 168.63344 188.538064 
L 167.103974 185.825135 
L 165.574509 183.003701 
L 164.045043 180.072114 
L 162.515578 177.029005 
L 160.986112 173.873319 
L 159.456647 170.604361 
L 157.927181 167.221847 
L 156.397716 163.725945 
L 154.86825 160.117341 
L 153.338785 156.397289 
L 151.809319 152.567677 
L 150.279854 148.631095 
L 148.750388 144.590902 
L 147.220923 140.451304 
L 145.691457 136.217432 
L 144.161992 131.895425 
L 142.632526 127.492517 
L 141.103061 123.017128 
L 139.573595 118.478958 
L 138.04413 113.889083 
L 136.514664 109.260055 
L 134.985199 104.606005 
L 133.455733 99.94274 
L 131.926268 95.28785 
L 130.396802 90.660802 
L 128.867337 86.083045 
L 127.337871 81.578093 
L 125.808406 77.171619 
L 124.27894 72.891524 
L 122.749475 68.768003 
L 121.220009 64.833595 
L 119.690544 61.123203 
L 118.161078 57.674104 
L 116.631613 54.525916 
L 115.102147 51.720539 
L 113.572682 49.302043 
L 112.043216 47.316513 
L 110.513751 45.811827 
L 108.984285 44.837366 
L 107.45482 44.443636 
L 105.925354 44.6818 
L 104.395889 45.603085 
L 102.866423 47.258069 
L 101.336958 49.695808 
L 99.807492 52.962795 
L 98.278026 57.101709 
L 96.748561 62.149945 
L 95.219095 68.137875 
L 93.68963 75.086805 
L 92.160164 83.006599 
L 90.630699 91.892905 
L 89.101233 101.723943 
L 87.571768 112.456786 
L 86.042302 124.023078 
L 84.512837 136.324102 
L 82.983371 149.225121 
L 81.453906 162.548898 
L 79.92444 176.068283 
L 78.394975 189.497759 
L 76.865509 202.483805 
L 75.336044 214.593937 
L 73.806578 225.304251 
L 72.277113 233.985305 
L 70.747647 239.886106 
L 69.218182 242.115999 
z
" style="fill:#1f77b4;fill-opacity:0.5;"/>
   </g>
   <g id="PolyCollection_2">
    <path clip-path="url(#pfab4d2ac17)" d="M 69.218182 242.116364 
L 69.218182 242.116364 
L 70.747647 242.116364 
L 72.277113 242.116364 
L 73.806578 242.116364 
L 75.336044 242.116364 
L 76.865509 242.116364 
L 78.394975 242.116364 
L 79.92444 242.116364 
L 81.453906 242.116364 
L 82.983371 242.116364 
L 84.512837 242.116364 
L 86.042302 242.116364 
L 87.571768 242.116364 
L 89.101233 242.116364 
L 90.630699 242.116364 
L 92.160164 242.116364 
L 93.68963 242.116364 
L 95.219095 242.116364 
L 96.748561 242.116364 
L 98.278026 242.116364 
L 99.807492 242.116364 
L 101.336958 242.116364 
L 102.866423 242.116364 
L 104.395889 242.116364 
L 105.925354 242.116364 
L 107.45482 242.116364 
L 108.984285 242.116364 
L 110.513751 242.116364 
L 112.043216 242.116364 
L 113.572682 242.116364 
L 115.102147 242.116364 
L 116.631613 242.116364 
L 118.161078 242.116364 
L 119.690544 242.116364 
L 121.220009 242.116364 
L 122.749475 242.116364 
L 124.27894 242.116364 
L 125.808406 242.116364 
L 127.337871 242.116364 
L 128.867337 242.116364 
L 130.396802 242.116364 
L 131.926268 242.116364 
L 133.455733 242.116364 
L 134.985199 242.116364 
L 136.514664 242.116364 
L 138.04413 242.116364 
L 139.573595 242.116364 
L 141.103061 242.116364 
L 142.632526 242.116364 
L 144.161992 242.116364 
L 145.691457 242.116364 
L 147.220923 242.116364 
L 148.750388 242.116364 
L 150.279854 242.116364 
L 151.809319 242.116364 
L 153.338785 242.116364 
L 154.86825 242.116364 
L 156.397716 242.116364 
L 157.927181 242.116364 
L 159.456647 242.116364 
L 160.986112 242.116364 
L 162.515578 242.116364 
L 164.045043 242.116364 
L 165.574509 242.116364 
L 167.103974 242.116364 
L 168.63344 242.116364 
L 170.162905 242.116364 
L 171.692371 242.116364 
L 173.221836 242.116364 
L 174.751302 242.116364 
L 176.280767 242.116364 
L 177.810233 242.116364 
L 179.339698 242.116364 
L 180.869164 242.116364 
L 182.39863 242.116364 
L 183.928095 242.116364 
L 185.457561 242.116364 
L 186.987026 242.116364 
L 188.516492 242.116364 
L 190.045957 242.116364 
L 191.575423 242.116364 
L 193.104888 242.116364 
L 194.634354 242.116364 
L 196.163819 242.116364 
L 197.693285 242.116364 
L 199.22275 242.116364 
L 200.752216 242.116364 
L 202.281681 242.116364 
L 203.811147 242.116364 
L 205.340612 242.116364 
L 206.870078 242.116364 
L 208.399543 242.116364 
L 209.929009 242.116364 
L 211.458474 242.116364 
L 212.98794 242.116364 
L 214.517405 242.116364 
L 216.046871 242.116364 
L 217.576336 242.116364 
L 219.105802 242.116364 
L 220.635267 242.116364 
L 222.164733 242.116364 
L 223.694198 242.116364 
L 225.223664 242.116364 
L 226.753129 242.116364 
L 228.282595 242.116364 
L 229.81206 242.116364 
L 231.341526 242.116364 
L 232.870991 242.116364 
L 234.400457 242.116364 
L 235.929922 242.116364 
L 237.459388 242.116364 
L 238.988853 242.116364 
L 240.518319 242.116364 
L 242.047784 242.116364 
L 243.57725 242.116364 
L 245.106715 242.116364 
L 246.636181 242.116364 
L 248.165646 242.116364 
L 249.695112 242.116364 
L 251.224577 242.116364 
L 252.754043 242.116364 
L 254.283508 242.116364 
L 255.812974 242.116364 
L 257.342439 242.116364 
L 258.871905 242.116364 
L 260.40137 242.116364 
L 261.930836 242.116364 
L 263.460302 242.116364 
L 264.989767 242.116364 
L 266.519233 242.116364 
L 268.048698 242.116364 
L 269.578164 242.116364 
L 271.107629 242.116364 
L 272.637095 242.116364 
L 274.16656 242.116364 
L 275.696026 242.116364 
L 277.225491 242.116364 
L 278.754957 242.116364 
L 280.284422 242.116364 
L 281.813888 242.116364 
L 283.343353 242.116364 
L 284.872819 242.116364 
L 286.402284 242.116364 
L 287.93175 242.116364 
L 289.461215 242.116364 
L 290.990681 242.116364 
L 292.520146 242.116364 
L 294.049612 242.116364 
L 295.579077 242.116364 
L 297.108543 242.116364 
L 298.638008 242.116364 
L 300.167474 242.116364 
L 301.696939 242.116364 
L 303.226405 242.116364 
L 304.75587 242.116364 
L 306.285336 242.116364 
L 307.814801 242.116364 
L 309.344267 242.116364 
L 310.873732 242.116364 
L 312.403198 242.116364 
L 313.932663 242.116364 
L 315.462129 242.116364 
L 316.991594 242.116364 
L 318.52106 242.116364 
L 320.050525 242.116364 
L 321.579991 242.116364 
L 323.109456 242.116364 
L 324.638922 242.116364 
L 326.168387 242.116364 
L 327.697853 242.116364 
L 329.227318 242.116364 
L 330.756784 242.116364 
L 332.286249 242.116364 
L 333.815715 242.116364 
L 335.34518 242.116364 
L 336.874646 242.116364 
L 338.404111 242.116364 
L 339.933577 242.116364 
L 341.463042 242.116364 
L 342.992508 242.116364 
L 344.521974 242.116364 
L 346.051439 242.116364 
L 347.580905 242.116364 
L 349.11037 242.116364 
L 350.639836 242.116364 
L 352.169301 242.116364 
L 353.698767 242.116364 
L 355.228232 242.116364 
L 356.757698 242.116364 
L 358.287163 242.116364 
L 359.816629 242.116364 
L 361.346094 242.116364 
L 362.87556 242.116364 
L 364.405025 242.116364 
L 365.934491 242.116364 
L 367.463956 242.116364 
L 368.993422 242.116364 
L 370.522887 242.116364 
L 372.052353 242.116364 
L 373.581818 242.116364 
L 373.581818 237.738963 
L 373.581818 237.738963 
L 372.052353 237.536864 
L 370.522887 237.32629 
L 368.993422 237.106937 
L 367.463956 236.878493 
L 365.934491 236.640639 
L 364.405025 236.393049 
L 362.87556 236.135388 
L 361.346094 235.867314 
L 359.816629 235.588476 
L 358.287163 235.298519 
L 356.757698 234.997078 
L 355.228232 234.683781 
L 353.698767 234.358249 
L 352.169301 234.020098 
L 350.639836 233.668936 
L 349.11037 233.304365 
L 347.580905 232.92598 
L 346.051439 232.533373 
L 344.521974 232.126129 
L 342.992508 231.703828 
L 341.463042 231.266046 
L 339.933577 230.812355 
L 338.404111 230.342325 
L 336.874646 229.855521 
L 335.34518 229.351507 
L 333.815715 228.829847 
L 332.286249 228.290101 
L 330.756784 227.731833 
L 329.227318 227.154605 
L 327.697853 226.557983 
L 326.168387 225.941533 
L 324.638922 225.304828 
L 323.109456 224.647445 
L 321.579991 223.968966 
L 320.050525 223.268981 
L 318.52106 222.547089 
L 316.991594 221.802899 
L 315.462129 221.036031 
L 313.932663 220.246119 
L 312.403198 219.432811 
L 310.873732 218.59577 
L 309.344267 217.734678 
L 307.814801 216.849236 
L 306.285336 215.939169 
L 304.75587 215.004223 
L 303.226405 214.04417 
L 301.696939 213.05881 
L 300.167474 212.047974 
L 298.638008 211.011522 
L 297.108543 209.949352 
L 295.579077 208.861396 
L 294.049612 207.747627 
L 292.520146 206.608059 
L 290.990681 205.442749 
L 289.461215 204.251803 
L 287.93175 203.035375 
L 286.402284 201.793671 
L 284.872819 200.526954 
L 283.343353 199.235542 
L 281.813888 197.919814 
L 280.284422 196.580214 
L 278.754957 195.21725 
L 277.225491 193.831499 
L 275.696026 192.42361 
L 274.16656 190.994305 
L 272.637095 189.544385 
L 271.107629 188.07473 
L 269.578164 186.586299 
L 268.048698 185.08014 
L 266.519233 183.557386 
L 264.989767 182.019258 
L 263.460302 180.467069 
L 261.930836 178.902227 
L 260.40137 177.326233 
L 258.871905 175.740687 
L 257.342439 174.147283 
L 255.812974 172.547819 
L 254.283508 170.944191 
L 252.754043 169.338396 
L 251.224577 167.732532 
L 249.695112 166.128799 
L 248.165646 164.529497 
L 246.636181 162.937027 
L 245.106715 161.353889 
L 243.57725 159.782681 
L 242.047784 158.226094 
L 240.518319 156.686916 
L 238.988853 155.168023 
L 237.459388 153.672377 
L 235.929922 152.203026 
L 234.400457 150.763093 
L 232.870991 149.355776 
L 231.341526 147.984337 
L 229.81206 146.652104 
L 228.282595 145.362455 
L 226.753129 144.118815 
L 225.223664 142.924647 
L 223.694198 141.783442 
L 222.164733 140.698711 
L 220.635267 139.673974 
L 219.105802 138.712746 
L 217.576336 137.81853 
L 216.046871 136.994802 
L 214.517405 136.244996 
L 212.98794 135.572495 
L 211.458474 134.980613 
L 209.929009 134.47258 
L 208.399543 134.051529 
L 206.870078 133.720478 
L 205.340612 133.482315 
L 203.811147 133.339779 
L 202.281681 133.295446 
L 200.752216 133.351706 
L 199.22275 133.510754 
L 197.693285 133.774565 
L 196.163819 134.144879 
L 194.634354 134.623182 
L 193.104888 135.210693 
L 191.575423 135.908342 
L 190.045957 136.716755 
L 188.516492 137.636239 
L 186.987026 138.666767 
L 185.457561 139.807963 
L 183.928095 141.059086 
L 182.39863 142.419024 
L 180.869164 143.886279 
L 179.339698 145.458959 
L 177.810233 147.134768 
L 176.280767 148.911007 
L 174.751302 150.784563 
L 173.221836 152.751911 
L 171.692371 154.809117 
L 170.162905 156.951836 
L 168.63344 159.175325 
L 167.103974 161.474446 
L 165.574509 163.843681 
L 164.045043 166.277146 
L 162.515578 168.768609 
L 160.986112 171.31151 
L 159.456647 173.898989 
L 157.927181 176.523908 
L 156.397716 179.178887 
L 154.86825 181.856334 
L 153.338785 184.548486 
L 151.809319 187.247445 
L 150.279854 189.945221 
L 148.750388 192.633782 
L 147.220923 195.305096 
L 145.691457 197.951185 
L 144.161992 200.564174 
L 142.632526 203.136344 
L 141.103061 205.660187 
L 139.573595 208.128459 
L 138.04413 210.534235 
L 136.514664 212.870962 
L 134.985199 215.132509 
L 133.455733 217.313219 
L 131.926268 219.407959 
L 130.396802 221.412158 
L 128.867337 223.32185 
L 127.337871 225.133712 
L 125.808406 226.845091 
L 124.27894 228.454026 
L 122.749475 229.959269 
L 121.220009 231.360293 
L 119.690544 232.657294 
L 118.161078 233.851181 
L 116.631613 234.943566 
L 115.102147 235.936739 
L 113.572682 236.83363 
L 112.043216 237.637772 
L 110.513751 238.353248 
L 108.984285 238.984633 
L 107.45482 239.536925 
L 105.925354 240.015476 
L 104.395889 240.42591 
L 102.866423 240.774038 
L 101.336958 241.065777 
L 99.807492 241.307057 
L 98.278026 241.50374 
L 96.748561 241.66153 
L 95.219095 241.785898 
L 93.68963 241.882006 
L 92.160164 241.954648 
L 90.630699 242.008194 
L 89.101233 242.046551 
L 87.571768 242.073136 
L 86.042302 242.090869 
L 84.512837 242.102175 
L 82.983371 242.109002 
L 81.453906 242.112861 
L 79.92444 242.114871 
L 78.394975 242.115813 
L 76.865509 242.116196 
L 75.336044 242.116325 
L 73.806578 242.116358 
L 72.277113 242.116363 
L 70.747647 242.116364 
L 69.218182 242.116364 
z
" style="fill:#ff7f0e;fill-opacity:0.5;"/>
   </g>
   <g id="matplotlib.axis_1">
    <g id="xtick_1">
     <g id="line2d_1">
      <defs>
       <path d="M 0 0 
L 0 3.5 
" id="m3efaef7081" style="stroke:#000000;stroke-width:0.8;"/>
      </defs>
      <g>
       <use style="stroke:#000000;stroke-width:0.8;" x="69.199158" xlink:href="#m3efaef7081" y="252"/>
      </g>
     </g>
     <g id="text_1">
      <!-- 0 -->
      <g transform="translate(66.017908 266.598437)scale(0.1 -0.1)">
       <defs>
        <path d="M 2034 4250 
Q 1547 4250 1301 3770 
Q 1056 3291 1056 2328 
Q 1056 1369 1301 889 
Q 1547 409 2034 409 
Q 2525 409 2770 889 
Q 3016 1369 3016 2328 
Q 3016 3291 2770 3770 
Q 2525 4250 2034 4250 
z
M 2034 4750 
Q 2819 4750 3233 4129 
Q 3647 3509 3647 2328 
Q 3647 1150 3233 529 
Q 2819 -91 2034 -91 
Q 1250 -91 836 529 
Q 422 1150 422 2328 
Q 422 3509 836 4129 
Q 1250 4750 2034 4750 
z
" id="DejaVuSans-30" transform="scale(0.015625)"/>
       </defs>
       <use xlink:href="#DejaVuSans-30"/>
      </g>
     </g>
    </g>
    <g id="xtick_2">
     <g id="line2d_2">
      <g>
       <use style="stroke:#000000;stroke-width:0.8;" x="107.24699" xlink:href="#m3efaef7081" y="252"/>
      </g>
     </g>
     <g id="text_2">
      <!-- 2 -->
      <g transform="translate(104.06574 266.598437)scale(0.1 -0.1)">
       <defs>
        <path d="M 1228 531 
L 3431 531 
L 3431 0 
L 469 0 
L 469 531 
Q 828 903 1448 1529 
Q 2069 2156 2228 2338 
Q 2531 2678 2651 2914 
Q 2772 3150 2772 3378 
Q 2772 3750 2511 3984 
Q 2250 4219 1831 4219 
Q 1534 4219 1204 4116 
Q 875 4013 500 3803 
L 500 4441 
Q 881 4594 1212 4672 
Q 1544 4750 1819 4750 
Q 2544 4750 2975 4387 
Q 3406 4025 3406 3419 
Q 3406 3131 3298 2873 
Q 3191 2616 2906 2266 
Q 2828 2175 2409 1742 
Q 1991 1309 1228 531 
z
" id="DejaVuSans-32" transform="scale(0.015625)"/>
       </defs>
       <use xlink:href="#DejaVuSans-32"/>
      </g>
     </g>
    </g>
    <g id="xtick_3">
     <g id="line2d_3">
      <g>
       <use style="stroke:#000000;stroke-width:0.8;" x="145.294823" xlink:href="#m3efaef7081" y="252"/>
      </g>
     </g>
     <g id="text_3">
      <!-- 4 -->
      <g transform="translate(142.113573 266.598437)scale(0.1 -0.1)">
       <defs>
        <path d="M 2419 4116 
L 825 1625 
L 2419 1625 
L 2419 4116 
z
M 2253 4666 
L 3047 4666 
L 3047 1625 
L 3713 1625 
L 3713 1100 
L 3047 1100 
L 3047 0 
L 2419 0 
L 2419 1100 
L 313 1100 
L 313 1709 
L 2253 4666 
z
" id="DejaVuSans-34" transform="scale(0.015625)"/>
       </defs>
       <use xlink:href="#DejaVuSans-34"/>
      </g>
     </g>
    </g>
    <g id="xtick_4">
     <g id="line2d_4">
      <g>
       <use style="stroke:#000000;stroke-width:0.8;" x="183.342656" xlink:href="#m3efaef7081" y="252"/>
      </g>
     </g>
     <g id="text_4">
      <!-- 6 -->
      <g transform="translate(180.161406 266.598437)scale(0.1 -0.1)">
       <defs>
        <path d="M 2113 2584 
Q 1688 2584 1439 2293 
Q 1191 2003 1191 1497 
Q 1191 994 1439 701 
Q 1688 409 2113 409 
Q 2538 409 2786 701 
Q 3034 994 3034 1497 
Q 3034 2003 2786 2293 
Q 2538 2584 2113 2584 
z
M 3366 4563 
L 3366 3988 
Q 3128 4100 2886 4159 
Q 2644 4219 2406 4219 
Q 1781 4219 1451 3797 
Q 1122 3375 1075 2522 
Q 1259 2794 1537 2939 
Q 1816 3084 2150 3084 
Q 2853 3084 3261 2657 
Q 3669 2231 3669 1497 
Q 3669 778 3244 343 
Q 2819 -91 2113 -91 
Q 1303 -91 875 529 
Q 447 1150 447 2328 
Q 447 3434 972 4092 
Q 1497 4750 2381 4750 
Q 2619 4750 2861 4703 
Q 3103 4656 3366 4563 
z
" id="DejaVuSans-36" transform="scale(0.015625)"/>
       </defs>
       <use xlink:href="#DejaVuSans-36"/>
      </g>
     </g>
    </g>
    <g id="xtick_5">
     <g id="line2d_5">
      <g>
       <use style="stroke:#000000;stroke-width:0.8;" x="221.390488" xlink:href="#m3efaef7081" y="252"/>
      </g>
     </g>
     <g id="text_5">
      <!-- 8 -->
      <g transform="translate(218.209238 266.598437)scale(0.1 -0.1)">
       <defs>
        <path d="M 2034 2216 
Q 1584 2216 1326 1975 
Q 1069 1734 1069 1313 
Q 1069 891 1326 650 
Q 1584 409 2034 409 
Q 2484 409 2743 651 
Q 3003 894 3003 1313 
Q 3003 1734 2745 1975 
Q 2488 2216 2034 2216 
z
M 1403 2484 
Q 997 2584 770 2862 
Q 544 3141 544 3541 
Q 544 4100 942 4425 
Q 1341 4750 2034 4750 
Q 2731 4750 3128 4425 
Q 3525 4100 3525 3541 
Q 3525 3141 3298 2862 
Q 3072 2584 2669 2484 
Q 3125 2378 3379 2068 
Q 3634 1759 3634 1313 
Q 3634 634 3220 271 
Q 2806 -91 2034 -91 
Q 1263 -91 848 271 
Q 434 634 434 1313 
Q 434 1759 690 2068 
Q 947 2378 1403 2484 
z
M 1172 3481 
Q 1172 3119 1398 2916 
Q 1625 2713 2034 2713 
Q 2441 2713 2670 2916 
Q 2900 3119 2900 3481 
Q 2900 3844 2670 4047 
Q 2441 4250 2034 4250 
Q 1625 4250 1398 4047 
Q 1172 3844 1172 3481 
z
" id="DejaVuSans-38" transform="scale(0.015625)"/>
       </defs>
       <use xlink:href="#DejaVuSans-38"/>
      </g>
     </g>
    </g>
    <g id="xtick_6">
     <g id="line2d_6">
      <g>
       <use style="stroke:#000000;stroke-width:0.8;" x="259.438321" xlink:href="#m3efaef7081" y="252"/>
      </g>
     </g>
     <g id="text_6">
      <!-- 10 -->
      <g transform="translate(253.075821 266.598437)scale(0.1 -0.1)">
       <defs>
        <path d="M 794 531 
L 1825 531 
L 1825 4091 
L 703 3866 
L 703 4441 
L 1819 4666 
L 2450 4666 
L 2450 531 
L 3481 531 
L 3481 0 
L 794 0 
L 794 531 
z
" id="DejaVuSans-31" transform="scale(0.015625)"/>
       </defs>
       <use xlink:href="#DejaVuSans-31"/>
       <use x="63.623047" xlink:href="#DejaVuSans-30"/>
      </g>
     </g>
    </g>
    <g id="xtick_7">
     <g id="line2d_7">
      <g>
       <use style="stroke:#000000;stroke-width:0.8;" x="297.486153" xlink:href="#m3efaef7081" y="252"/>
      </g>
     </g>
     <g id="text_7">
      <!-- 12 -->
      <g transform="translate(291.123653 266.598437)scale(0.1 -0.1)">
       <use xlink:href="#DejaVuSans-31"/>
       <use x="63.623047" xlink:href="#DejaVuSans-32"/>
      </g>
     </g>
    </g>
    <g id="xtick_8">
     <g id="line2d_8">
      <g>
       <use style="stroke:#000000;stroke-width:0.8;" x="335.533986" xlink:href="#m3efaef7081" y="252"/>
      </g>
     </g>
     <g id="text_8">
      <!-- 14 -->
      <g transform="translate(329.171486 266.598437)scale(0.1 -0.1)">
       <use xlink:href="#DejaVuSans-31"/>
       <use x="63.623047" xlink:href="#DejaVuSans-34"/>
      </g>
     </g>
    </g>
    <g id="xtick_9">
     <g id="line2d_9">
      <g>
       <use style="stroke:#000000;stroke-width:0.8;" x="373.581818" xlink:href="#m3efaef7081" y="252"/>
      </g>
     </g>
     <g id="text_9">
      <!-- 16 -->
      <g transform="translate(367.219318 266.598437)scale(0.1 -0.1)">
       <use xlink:href="#DejaVuSans-31"/>
       <use x="63.623047" xlink:href="#DejaVuSans-36"/>
      </g>
     </g>
    </g>
    <g id="text_10">
     <!-- standard error -->
     <g transform="translate(185.530469 280.276563)scale(0.1 -0.1)">
      <defs>
       <path d="M 2834 3397 
L 2834 2853 
Q 2591 2978 2328 3040 
Q 2066 3103 1784 3103 
Q 1356 3103 1142 2972 
Q 928 2841 928 2578 
Q 928 2378 1081 2264 
Q 1234 2150 1697 2047 
L 1894 2003 
Q 2506 1872 2764 1633 
Q 3022 1394 3022 966 
Q 3022 478 2636 193 
Q 2250 -91 1575 -91 
Q 1294 -91 989 -36 
Q 684 19 347 128 
L 347 722 
Q 666 556 975 473 
Q 1284 391 1588 391 
Q 1994 391 2212 530 
Q 2431 669 2431 922 
Q 2431 1156 2273 1281 
Q 2116 1406 1581 1522 
L 1381 1569 
Q 847 1681 609 1914 
Q 372 2147 372 2553 
Q 372 3047 722 3315 
Q 1072 3584 1716 3584 
Q 2034 3584 2315 3537 
Q 2597 3491 2834 3397 
z
" id="DejaVuSans-73" transform="scale(0.015625)"/>
       <path d="M 1172 4494 
L 1172 3500 
L 2356 3500 
L 2356 3053 
L 1172 3053 
L 1172 1153 
Q 1172 725 1289 603 
Q 1406 481 1766 481 
L 2356 481 
L 2356 0 
L 1766 0 
Q 1100 0 847 248 
Q 594 497 594 1153 
L 594 3053 
L 172 3053 
L 172 3500 
L 594 3500 
L 594 4494 
L 1172 4494 
z
" id="DejaVuSans-74" transform="scale(0.015625)"/>
       <path d="M 2194 1759 
Q 1497 1759 1228 1600 
Q 959 1441 959 1056 
Q 959 750 1161 570 
Q 1363 391 1709 391 
Q 2188 391 2477 730 
Q 2766 1069 2766 1631 
L 2766 1759 
L 2194 1759 
z
M 3341 1997 
L 3341 0 
L 2766 0 
L 2766 531 
Q 2569 213 2275 61 
Q 1981 -91 1556 -91 
Q 1019 -91 701 211 
Q 384 513 384 1019 
Q 384 1609 779 1909 
Q 1175 2209 1959 2209 
L 2766 2209 
L 2766 2266 
Q 2766 2663 2505 2880 
Q 2244 3097 1772 3097 
Q 1472 3097 1187 3025 
Q 903 2953 641 2809 
L 641 3341 
Q 956 3463 1253 3523 
Q 1550 3584 1831 3584 
Q 2591 3584 2966 3190 
Q 3341 2797 3341 1997 
z
" id="DejaVuSans-61" transform="scale(0.015625)"/>
       <path d="M 3513 2113 
L 3513 0 
L 2938 0 
L 2938 2094 
Q 2938 2591 2744 2837 
Q 2550 3084 2163 3084 
Q 1697 3084 1428 2787 
Q 1159 2491 1159 1978 
L 1159 0 
L 581 0 
L 581 3500 
L 1159 3500 
L 1159 2956 
Q 1366 3272 1645 3428 
Q 1925 3584 2291 3584 
Q 2894 3584 3203 3211 
Q 3513 2838 3513 2113 
z
" id="DejaVuSans-6e" transform="scale(0.015625)"/>
       <path d="M 2906 2969 
L 2906 4863 
L 3481 4863 
L 3481 0 
L 2906 0 
L 2906 525 
Q 2725 213 2448 61 
Q 2172 -91 1784 -91 
Q 1150 -91 751 415 
Q 353 922 353 1747 
Q 353 2572 751 3078 
Q 1150 3584 1784 3584 
Q 2172 3584 2448 3432 
Q 2725 3281 2906 2969 
z
M 947 1747 
Q 947 1113 1208 752 
Q 1469 391 1925 391 
Q 2381 391 2643 752 
Q 2906 1113 2906 1747 
Q 2906 2381 2643 2742 
Q 2381 3103 1925 3103 
Q 1469 3103 1208 2742 
Q 947 2381 947 1747 
z
" id="DejaVuSans-64" transform="scale(0.015625)"/>
       <path d="M 2631 2963 
Q 2534 3019 2420 3045 
Q 2306 3072 2169 3072 
Q 1681 3072 1420 2755 
Q 1159 2438 1159 1844 
L 1159 0 
L 581 0 
L 581 3500 
L 1159 3500 
L 1159 2956 
Q 1341 3275 1631 3429 
Q 1922 3584 2338 3584 
Q 2397 3584 2469 3576 
Q 2541 3569 2628 3553 
L 2631 2963 
z
" id="DejaVuSans-72" transform="scale(0.015625)"/>
       <path id="DejaVuSans-20" transform="scale(0.015625)"/>
       <path d="M 3597 1894 
L 3597 1613 
L 953 1613 
Q 991 1019 1311 708 
Q 1631 397 2203 397 
Q 2534 397 2845 478 
Q 3156 559 3463 722 
L 3463 178 
Q 3153 47 2828 -22 
Q 2503 -91 2169 -91 
Q 1331 -91 842 396 
Q 353 884 353 1716 
Q 353 2575 817 3079 
Q 1281 3584 2069 3584 
Q 2775 3584 3186 3129 
Q 3597 2675 3597 1894 
z
M 3022 2063 
Q 3016 2534 2758 2815 
Q 2500 3097 2075 3097 
Q 1594 3097 1305 2825 
Q 1016 2553 972 2059 
L 3022 2063 
z
" id="DejaVuSans-65" transform="scale(0.015625)"/>
       <path d="M 1959 3097 
Q 1497 3097 1228 2736 
Q 959 2375 959 1747 
Q 959 1119 1226 758 
Q 1494 397 1959 397 
Q 2419 397 2687 759 
Q 2956 1122 2956 1747 
Q 2956 2369 2687 2733 
Q 2419 3097 1959 3097 
z
M 1959 3584 
Q 2709 3584 3137 3096 
Q 3566 2609 3566 1747 
Q 3566 888 3137 398 
Q 2709 -91 1959 -91 
Q 1206 -91 779 398 
Q 353 888 353 1747 
Q 353 2609 779 3096 
Q 1206 3584 1959 3584 
z
" id="DejaVuSans-6f" transform="scale(0.015625)"/>
      </defs>
      <use xlink:href="#DejaVuSans-73"/>
      <use x="52.099609" xlink:href="#DejaVuSans-74"/>
      <use x="91.308594" xlink:href="#DejaVuSans-61"/>
      <use x="152.587891" xlink:href="#DejaVuSans-6e"/>
      <use x="215.966797" xlink:href="#DejaVuSans-64"/>
      <use x="279.443359" xlink:href="#DejaVuSans-61"/>
      <use x="340.722656" xlink:href="#DejaVuSans-72"/>
      <use x="380.085938" xlink:href="#DejaVuSans-64"/>
      <use x="443.5625" xlink:href="#DejaVuSans-20"/>
      <use x="475.349609" xlink:href="#DejaVuSans-65"/>
      <use x="536.873047" xlink:href="#DejaVuSans-72"/>
      <use x="576.236328" xlink:href="#DejaVuSans-72"/>
      <use x="615.099609" xlink:href="#DejaVuSans-6f"/>
      <use x="676.28125" xlink:href="#DejaVuSans-72"/>
     </g>
    </g>
   </g>
   <g id="matplotlib.axis_2">
    <g id="ytick_1">
     <g id="line2d_10">
      <defs>
       <path d="M 0 0 
L -3.5 0 
" id="m344809c113" style="stroke:#000000;stroke-width:0.8;"/>
      </defs>
      <g>
       <use style="stroke:#000000;stroke-width:0.8;" x="54" xlink:href="#m344809c113" y="242.116364"/>
      </g>
     </g>
     <g id="text_11">
      <!-- 0.00 -->
      <g transform="translate(24.734375 245.915582)scale(0.1 -0.1)">
       <defs>
        <path d="M 684 794 
L 1344 794 
L 1344 0 
L 684 0 
L 684 794 
z
" id="DejaVuSans-2e" transform="scale(0.015625)"/>
       </defs>
       <use xlink:href="#DejaVuSans-30"/>
       <use x="63.623047" xlink:href="#DejaVuSans-2e"/>
       <use x="95.410156" xlink:href="#DejaVuSans-30"/>
       <use x="159.033203" xlink:href="#DejaVuSans-30"/>
      </g>
     </g>
    </g>
    <g id="ytick_2">
     <g id="line2d_11">
      <g>
       <use style="stroke:#000000;stroke-width:0.8;" x="54" xlink:href="#m344809c113" y="205.599906"/>
      </g>
     </g>
     <g id="text_12">
      <!-- 0.05 -->
      <g transform="translate(24.734375 209.399125)scale(0.1 -0.1)">
       <defs>
        <path d="M 691 4666 
L 3169 4666 
L 3169 4134 
L 1269 4134 
L 1269 2991 
Q 1406 3038 1543 3061 
Q 1681 3084 1819 3084 
Q 2600 3084 3056 2656 
Q 3513 2228 3513 1497 
Q 3513 744 3044 326 
Q 2575 -91 1722 -91 
Q 1428 -91 1123 -41 
Q 819 9 494 109 
L 494 744 
Q 775 591 1075 516 
Q 1375 441 1709 441 
Q 2250 441 2565 725 
Q 2881 1009 2881 1497 
Q 2881 1984 2565 2268 
Q 2250 2553 1709 2553 
Q 1456 2553 1204 2497 
Q 953 2441 691 2322 
L 691 4666 
z
" id="DejaVuSans-35" transform="scale(0.015625)"/>
       </defs>
       <use xlink:href="#DejaVuSans-30"/>
       <use x="63.623047" xlink:href="#DejaVuSans-2e"/>
       <use x="95.410156" xlink:href="#DejaVuSans-30"/>
       <use x="159.033203" xlink:href="#DejaVuSans-35"/>
      </g>
     </g>
    </g>
    <g id="ytick_3">
     <g id="line2d_12">
      <g>
       <use style="stroke:#000000;stroke-width:0.8;" x="54" xlink:href="#m344809c113" y="169.083449"/>
      </g>
     </g>
     <g id="text_13">
      <!-- 0.10 -->
      <g transform="translate(24.734375 172.882668)scale(0.1 -0.1)">
       <use xlink:href="#DejaVuSans-30"/>
       <use x="63.623047" xlink:href="#DejaVuSans-2e"/>
       <use x="95.410156" xlink:href="#DejaVuSans-31"/>
       <use x="159.033203" xlink:href="#DejaVuSans-30"/>
      </g>
     </g>
    </g>
    <g id="ytick_4">
     <g id="line2d_13">
      <g>
       <use style="stroke:#000000;stroke-width:0.8;" x="54" xlink:href="#m344809c113" y="132.566992"/>
      </g>
     </g>
     <g id="text_14">
      <!-- 0.15 -->
      <g transform="translate(24.734375 136.36621)scale(0.1 -0.1)">
       <use xlink:href="#DejaVuSans-30"/>
       <use x="63.623047" xlink:href="#DejaVuSans-2e"/>
       <use x="95.410156" xlink:href="#DejaVuSans-31"/>
       <use x="159.033203" xlink:href="#DejaVuSans-35"/>
      </g>
     </g>
    </g>
    <g id="ytick_5">
     <g id="line2d_14">
      <g>
       <use style="stroke:#000000;stroke-width:0.8;" x="54" xlink:href="#m344809c113" y="96.050534"/>
      </g>
     </g>
     <g id="text_15">
      <!-- 0.20 -->
      <g transform="translate(24.734375 99.849753)scale(0.1 -0.1)">
       <use xlink:href="#DejaVuSans-30"/>
       <use x="63.623047" xlink:href="#DejaVuSans-2e"/>
       <use x="95.410156" xlink:href="#DejaVuSans-32"/>
       <use x="159.033203" xlink:href="#DejaVuSans-30"/>
      </g>
     </g>
    </g>
    <g id="ytick_6">
     <g id="line2d_15">
      <g>
       <use style="stroke:#000000;stroke-width:0.8;" x="54" xlink:href="#m344809c113" y="59.534077"/>
      </g>
     </g>
     <g id="text_16">
      <!-- 0.25 -->
      <g transform="translate(24.734375 63.333296)scale(0.1 -0.1)">
       <use xlink:href="#DejaVuSans-30"/>
       <use x="63.623047" xlink:href="#DejaVuSans-2e"/>
       <use x="95.410156" xlink:href="#DejaVuSans-32"/>
       <use x="159.033203" xlink:href="#DejaVuSans-35"/>
      </g>
     </g>
    </g>
    <g id="text_17">
     <!-- frequency -->
     <g transform="translate(18.654687 168.356562)rotate(-90)scale(0.1 -0.1)">
      <defs>
       <path d="M 2375 4863 
L 2375 4384 
L 1825 4384 
Q 1516 4384 1395 4259 
Q 1275 4134 1275 3809 
L 1275 3500 
L 2222 3500 
L 2222 3053 
L 1275 3053 
L 1275 0 
L 697 0 
L 697 3053 
L 147 3053 
L 147 3500 
L 697 3500 
L 697 3744 
Q 697 4328 969 4595 
Q 1241 4863 1831 4863 
L 2375 4863 
z
" id="DejaVuSans-66" transform="scale(0.015625)"/>
       <path d="M 947 1747 
Q 947 1113 1208 752 
Q 1469 391 1925 391 
Q 2381 391 2643 752 
Q 2906 1113 2906 1747 
Q 2906 2381 2643 2742 
Q 2381 3103 1925 3103 
Q 1469 3103 1208 2742 
Q 947 2381 947 1747 
z
M 2906 525 
Q 2725 213 2448 61 
Q 2172 -91 1784 -91 
Q 1150 -91 751 415 
Q 353 922 353 1747 
Q 353 2572 751 3078 
Q 1150 3584 1784 3584 
Q 2172 3584 2448 3432 
Q 2725 3281 2906 2969 
L 2906 3500 
L 3481 3500 
L 3481 -1331 
L 2906 -1331 
L 2906 525 
z
" id="DejaVuSans-71" transform="scale(0.015625)"/>
       <path d="M 544 1381 
L 544 3500 
L 1119 3500 
L 1119 1403 
Q 1119 906 1312 657 
Q 1506 409 1894 409 
Q 2359 409 2629 706 
Q 2900 1003 2900 1516 
L 2900 3500 
L 3475 3500 
L 3475 0 
L 2900 0 
L 2900 538 
Q 2691 219 2414 64 
Q 2138 -91 1772 -91 
Q 1169 -91 856 284 
Q 544 659 544 1381 
z
M 1991 3584 
L 1991 3584 
z
" id="DejaVuSans-75" transform="scale(0.015625)"/>
       <path d="M 3122 3366 
L 3122 2828 
Q 2878 2963 2633 3030 
Q 2388 3097 2138 3097 
Q 1578 3097 1268 2742 
Q 959 2388 959 1747 
Q 959 1106 1268 751 
Q 1578 397 2138 397 
Q 2388 397 2633 464 
Q 2878 531 3122 666 
L 3122 134 
Q 2881 22 2623 -34 
Q 2366 -91 2075 -91 
Q 1284 -91 818 406 
Q 353 903 353 1747 
Q 353 2603 823 3093 
Q 1294 3584 2113 3584 
Q 2378 3584 2631 3529 
Q 2884 3475 3122 3366 
z
" id="DejaVuSans-63" transform="scale(0.015625)"/>
       <path d="M 2059 -325 
Q 1816 -950 1584 -1140 
Q 1353 -1331 966 -1331 
L 506 -1331 
L 506 -850 
L 844 -850 
Q 1081 -850 1212 -737 
Q 1344 -625 1503 -206 
L 1606 56 
L 191 3500 
L 800 3500 
L 1894 763 
L 2988 3500 
L 3597 3500 
L 2059 -325 
z
" id="DejaVuSans-79" transform="scale(0.015625)"/>
      </defs>
      <use xlink:href="#DejaVuSans-66"/>
      <use x="35.205078" xlink:href="#DejaVuSans-72"/>
      <use x="74.068359" xlink:href="#DejaVuSans-65"/>
      <use x="135.591797" xlink:href="#DejaVuSans-71"/>
      <use x="199.068359" xlink:href="#DejaVuSans-75"/>
      <use x="262.447266" xlink:href="#DejaVuSans-65"/>
      <use x="323.970703" xlink:href="#DejaVuSans-6e"/>
      <use x="387.349609" xlink:href="#DejaVuSans-63"/>
      <use x="442.330078" xlink:href="#DejaVuSans-79"/>
     </g>
    </g>
   </g>
   <g id="patch_3">
    <path d="M 54 252 
L 54 34.56 
" style="fill:none;stroke:#000000;stroke-linecap:square;stroke-linejoin:miter;stroke-width:0.8;"/>
   </g>
   <g id="patch_4">
    <path d="M 388.8 252 
L 388.8 34.56 
" style="fill:none;stroke:#000000;stroke-linecap:square;stroke-linejoin:miter;stroke-width:0.8;"/>
   </g>
   <g id="patch_5">
    <path d="M 54 252 
L 388.8 252 
" style="fill:none;stroke:#000000;stroke-linecap:square;stroke-linejoin:miter;stroke-width:0.8;"/>
   </g>
   <g id="patch_6">
    <path d="M 54 34.56 
L 388.8 34.56 
" style="fill:none;stroke:#000000;stroke-linecap:square;stroke-linejoin:miter;stroke-width:0.8;"/>
   </g>
  </g>
 </g>
 <defs>
  <clipPath id="pfab4d2ac17">
   <rect height="217.44" width="334.8" x="54" y="34.56"/>
  </clipPath>
 </defs>
</svg>
